Coordinates
version=1
nRows=20
nColumns=34
inDegrees=yes

Units are S.I. units (second, meters, Newtons, ...)
If the header above contains a line with 'inDegrees', this indicates whether rotational values are in degrees (yes) or radians (no).

endheader
time	pelvis_tilt	pelvis_list	pelvis_rotation	pelvis_tx	pelvis_ty	pelvis_tz	hip_flexion_r	hip_adduction_r	hip_rotation_r	knee_angle_r	ankle_angle_r	subtalar_angle_r	mtp_angle_r	hip_flexion_l	hip_adduction_l	hip_rotation_l	knee_angle_l	ankle_angle_l	subtalar_angle_l	mtp_angle_l	lumbar_extension	lumbar_bending	lumbar_rotation	arm_flex_r	arm_add_r	arm_rot_r	elbow_flex_r	pro_sup_r	arm_flex_l	arm_add_l	arm_rot_l	elbow_flex_l	pro_sup_l
      0.00000000	      4.31288385	    -10.19204302	    -62.52947764	      1.41440356	      0.89701503	      5.30793508	     50.55161628	      2.82798453	     -3.42424346	     39.22700869	     18.54819156	      5.31925190	      0.00000000	     42.33470070	      7.67513147	     -5.24117095	     22.12288149	    -25.97768359	    -13.02754942	      0.00000000	    -35.44520258	      9.44053292	      9.93979811	     17.51476465	     -5.99723820	      7.23678492	     30.60697921	    110.13871121	     20.82794864	      4.83709286	    -10.99381405	     28.53223286	    111.13750660
      0.01666670	      4.32533378	    -10.12820828	    -62.58864362	      1.41415231	      0.89669554	      5.30775132	     50.49666936	      2.82758620	     -3.50449397	     38.95216215	     18.55742902	      5.32352175	      0.00000000	     42.47806150	      7.68210494	     -5.16192937	     22.24282071	    -25.95909389	    -12.97706842	      0.00000000	    -35.39644238	      9.25166395	      9.85913758	     17.69616858	     -5.98925286	      7.23445850	     30.69320362	    110.16616808	     20.86174567	      4.75101601	    -10.98929362	     28.50393601	    111.14365479
      0.03333330	      4.18911915	    -10.00392599	    -62.78854420	      1.41449042	      0.89583501	      5.30702209	     50.43539382	      2.99583045	     -3.24796799	     38.33715253	     18.65492542	      5.46059395	      0.00000000	     42.79185569	      7.52768301	     -5.32600323	     22.35134528	    -26.09297541	    -12.71534237	      0.00000000	    -35.09093588	      9.17791260	      9.96479836	     17.89606118	     -6.13544771	      7.14387950	     30.55947341	    110.32860081	     20.80853545	      4.68955354	    -10.74828892	     28.63788264	    111.23713028
      0.05000000	      4.16844286	     -9.73396786	    -63.13757064	      1.41491100	      0.89455884	      5.30561601	     50.29164046	      3.09027456	     -2.96024519	     37.27504017	     18.61990064	      5.56681976	      0.00000000	     43.13177591	      7.47655878	     -5.60711540	     22.26252584	    -26.21929020	    -12.62162136	      0.00000000	    -34.81443986	      8.93657307	      9.90217487	     18.18694282	     -6.30264611	      6.91382350	     30.47876995	    110.51644912	     20.70755920	      4.53104855	    -10.30844465	     28.87894778	    111.38495023
      0.06666670	      4.27313250	     -9.40842233	    -63.65301862	      1.41443142	      0.89308208	      5.30426293	     49.97612777	      3.35276448	     -2.13733082	     35.80947619	     18.51027809	      5.54910892	      0.00000000	     43.50705076	      7.34273752	     -6.28164061	     22.19098722	    -26.47744186	    -12.78927621	      0.00000000	    -34.57742039	      8.38303890	     10.10126002	     18.34166867	     -6.32616123	      6.32488179	     30.17460117	    110.91298419	     20.70768830	      4.28076742	     -9.35317764	     29.17583970	    111.69959823
      0.08333330	      4.49999065	     -9.07146347	    -64.05648372	      1.41458451	      0.89197308	      5.30277642	     49.48522127	      3.53769346	     -1.10885970	     34.06040650	     18.36485724	      5.16561084	      0.00000000	     43.50537019	      7.45347168	     -6.96742910	     21.52478970	    -26.73402299	    -12.99322148	      0.00000000	    -34.29845153	      7.72440975	     10.01532950	     18.36617193	     -6.27022004	      5.33286470	     30.07091886	    111.71337536	     20.43862953	      3.99516803	     -7.86356836	     29.25289488	    112.18725215
      0.10000000	      4.44342721	     -8.74377791	    -64.26887563	      1.41604939	      0.89199538	      5.30218436	     48.74187478	      3.59605809	     -0.58579890	     31.95302250	     18.44006120	      5.52739526	      0.00000000	     43.60297705	      7.56545869	     -7.12662986	     21.04044246	    -27.01970377	    -13.00287220	      0.00000000	    -33.79364779	      7.45070171	      9.68579587	     18.15846912	     -6.33997797	      5.00455114	     30.05575132	    112.07571945	     19.96822244	      3.89299089	     -7.37162244	     29.50777096	    112.35764422
      0.11666670	      4.53874715	     -8.48230476	    -64.87898669	      1.41811674	      0.89290796	      5.30173019	     47.57680522	      3.74373775	      0.17159661	     29.42459248	     18.21344964	      5.99698320	      0.00000000	     43.30452961	      7.61208881	     -7.56079868	     20.14092166	    -27.36204048	    -13.56785537	      0.00000000	    -33.34552573	      7.03088705	      9.30062929	     18.09044009	     -6.19782639	      4.40477543	     29.73312133	    112.76311307	     19.38444771	      3.63039503	     -6.08879461	     29.71245058	    112.74400932
      0.13333330	      4.44612759	     -7.98877341	    -65.15951085	      1.42071511	      0.89277857	      5.30125226	     46.68292877	      3.66525397	      0.77625837	     26.82224145	     18.21781026	      6.66358253	      0.00000000	     43.44784594	      7.81640441	     -7.64440140	     19.45354889	    -27.48476272	    -13.54207165	      0.00000000	    -32.45747782	      6.77800524	      8.73427246	     17.90748977	     -6.07673557	      4.27009167	     29.54602452	    112.91787518	     18.91299383	      3.57986517	     -5.65503220	     29.59411040	    112.85771457
      0.15000000	      4.59906591	     -7.68892052	    -65.82407193	      1.42256082	      0.89378143	      5.30109619	     45.37588114	      3.55849507	      1.38664645	     24.10965733	     17.70289573	      7.43672271	      0.00000000	     43.19553136	      7.87937797	     -7.96903705	     18.63320855	    -27.88292828	    -14.25221725	      0.00000000	    -32.17059031	      6.14534010	      8.59440165	     18.15393243	     -6.00279603	      3.87053712	     28.69054101	    113.70934430	     18.51572882	      3.17220665	     -3.16169589	     29.67408796	    113.49877684
      0.16666670	      4.52116084	     -7.14810430	    -66.18466705	      1.42586073	      0.89390189	      5.30024721	     44.49173725	      3.22045888	      1.74257161	     21.34431276	     17.16256754	      8.10619465	      0.00000000	     43.35681766	      8.11987772	     -8.04831460	     17.87805049	    -28.28591079	    -14.26821999	      0.00000000	    -31.41685301	      5.80753445	      7.86448351	     18.05419446	     -6.11095148	      3.69220714	     28.53245617	    114.10380032	     18.04958121	      2.98854783	     -1.97159044	     29.68935977	    113.80327234
      0.18333330	      4.44628553	     -6.90034427	    -66.43359059	      1.42889482	      0.89425987	      5.29941022	     43.62013511	      2.96503457	      2.18037533	     19.10094652	     16.37597339	      8.13703039	      0.00000000	     43.21759549	      8.33265283	     -8.02347920	     17.12269215	    -28.67493551	    -15.04117384	      0.00000000	    -30.94979580	      5.70951064	      6.79514433	     18.11612808	     -6.14659935	      3.41417221	     28.24562286	    115.30318788	     17.76363346	      2.31193082	      1.31979619	     29.37793889	    114.65686418
      0.20000000	      4.15128118	     -6.76096300	    -66.60721149	      1.43101723	      0.89452340	      5.29920171	     43.00510113	      2.77330073	      2.04726862	     17.30654777	     15.05985263	      8.29834359	      0.00000000	     43.24666793	      8.26434036	     -7.97230071	     16.77376795	    -28.73242041	    -15.41306927	      0.00000000	    -30.47006319	      5.70615320	      6.05926591	     18.07503761	     -6.20456535	      2.81347130	     27.99786396	    116.05590434	     17.18465136	      2.01772912	      3.03782703	     29.55516980	    115.09754841
      0.21666670	      4.20308345	     -6.58561508	    -66.67015802	      1.43307688	      0.89443912	      5.29917485	     42.61612489	      2.30807835	      1.92673568	     16.16096339	     13.78766646	      8.68648815	      0.00000000	     43.31039713	      8.48322051	     -7.97796920	     16.69081154	    -28.49860709	    -15.61777582	      0.00000000	    -30.11902976	      5.27555809	      5.03369016	     17.67087560	     -6.02430822	      2.72542374	     27.98275500	    116.12529360	     16.60799806	      1.87240341	      3.39695303	     29.42842736	    115.17412754
      0.23333330	      3.73000800	     -7.01310148	    -66.16224674	      1.43486256	      0.89428940	      5.29845930	     41.91950025	      2.23111321	      1.60430469	     15.12881120	     11.82211764	      8.33562617	      0.00000000	     43.27189661	      8.42506318	     -7.24390733	     17.06615052	    -28.55489165	    -15.76083820	      0.00000000	    -30.18233968	      5.73760914	      3.58328357	     17.65114090	     -5.39729283	      1.99154785	     27.45529191	    116.61984083	     16.08353259	      0.96753515	      6.23553343	     29.99053713	    115.80076407
      0.25000000	      3.79042510	     -7.14080274	    -65.99418605	      1.43676289	      0.89425683	      5.29848835	     41.72940199	      1.89448582	      1.36769189	     15.08679833	     10.37662560	      8.41977362	      0.00000000	     43.24518022	      8.61641968	     -7.27444405	     17.37096688	    -28.37183983	    -15.97307710	      0.00000000	    -30.22329441	      5.41505921	      2.52668794	     17.42323456	     -5.03123699	      1.85568628	     27.50308358	    116.76544567	     15.95341224	      0.62239015	      6.80231033	     29.90794109	    115.93292523
      0.26666670	      3.80103563	     -7.35877659	    -66.01070791	      1.43902102	      0.89431641	      5.29760065	     41.73351914	      1.63325867	      1.16850338	     15.65645018	      9.34178099	      8.41422298	      0.00000000	     43.19676576	      8.69997066	     -7.24695047	     17.69927185	    -28.18725709	    -16.20820671	      0.00000000	    -30.57504375	      5.23973509	      1.73617961	     17.38072857	     -5.14253762	      1.66087024	     27.43601361	    116.80270144	     15.90148045	      0.69501608	      7.23960889	     30.06620384	    116.02766950
      0.28333330	      3.29927870	     -7.78800917	    -65.68826009	      1.44185584	      0.89461604	      5.29554801	     41.77735350	      1.61761005	      0.06718756	     16.22004441	      8.47099107	      7.78755884	      0.00000000	     42.71070992	      8.70341575	     -6.36906186	     17.15358999	    -28.42735656	    -16.45084305	      0.00000000	    -31.06111041	      5.93822237	      1.16554164	     17.12689697	     -5.11122790	     -0.18961958	     27.26688361	    117.40343609	     15.89878285	      0.33003425	     10.80013601	     30.52971169	    116.89207648
      0.30000000	      2.87799885	     -7.82318304	    -65.69702085	      1.44435284	      0.89421372	      5.29293256	     42.42372511	      1.53780324	     -0.45893694	     17.17636098	      7.95269686	      7.47301766	      0.00000000	     42.50018640	      8.59272275	     -6.61163606	     16.29366385	    -28.76469004	    -16.11355032	      0.00000000	    -31.61498200	      6.24503016	      0.60378970	     17.00077130	     -5.35205658	     -0.50116296	     27.23452805	    117.49398051	     15.96655203	      0.52465321	     11.22018772	     30.96464859	    117.00332950
      0.31666670	      2.41166481	     -7.81675149	    -65.18576160	      1.44842706	      0.89292183	      5.28960463	     43.13145835	      1.01910409	     -0.90954534	     18.27137312	      7.95630409	      7.30825682	      0.00000000	     42.59390235	      8.83854010	     -6.45884243	     15.85502903	    -28.92319149	    -15.69727593	      0.00000000	    -32.12297215	      6.97833952	     -0.05147347	     16.66547507	     -5.80488615	     -2.61954479	     27.62394241	    118.49383500	     16.28831600	      0.48310543	     13.48909630	     31.53346504	    117.90067584
